<svg id="Layer_1" data-name="Layer 1" xmlns="http://www.w3.org/2000/svg" viewBox="0 0 1218.33 1092.14"><defs><style>.cls-1{fill:#fff;stroke:#000;stroke-miterlimit:10;stroke-width:10px;}</style></defs><title>grid</title><polygon class="cls-1" points="126.59 60.52 82.69 60.52 60.74 98.55 82.69 136.56 126.59 136.56 148.54 98.55 126.59 60.52"/><polygon class="cls-1" points="126.59 136.56 82.69 136.56 60.74 174.59 82.69 212.61 126.59 212.61 148.54 174.59 126.59 136.56"/><polygon class="cls-1" points="126.59 212.61 82.69 212.61 60.74 250.63 82.69 288.65 126.59 288.65 148.54 250.63 126.59 212.61"/><polygon class="cls-1" points="126.59 288.65 82.69 288.65 60.74 326.67 82.69 364.69 126.59 364.69 148.54 326.67 126.59 288.65"/><polygon class="cls-1" points="126.59 364.69 82.69 364.69 60.74 402.71 82.69 440.73 126.59 440.73 148.54 402.71 126.59 364.69"/><polygon class="cls-1" points="126.59 440.73 82.69 440.73 60.74 478.75 82.69 516.77 126.59 516.77 148.54 478.75 126.59 440.73"/><polygon class="cls-1" points="258.42 60.52 214.52 60.52 192.57 98.55 214.52 136.56 258.42 136.56 280.37 98.55 258.42 60.52"/><polygon class="cls-1" points="258.42 136.56 214.52 136.56 192.57 174.59 214.52 212.61 258.42 212.61 280.37 174.59 258.42 136.56"/><polygon class="cls-1" points="258.42 212.61 214.52 212.61 192.57 250.63 214.52 288.65 258.42 288.65 280.37 250.63 258.42 212.61"/><polygon class="cls-1" points="258.42 288.65 214.52 288.65 192.57 326.67 214.52 364.69 258.42 364.69 280.37 326.67 258.42 288.65"/><polygon class="cls-1" points="258.42 364.69 214.52 364.69 192.57 402.71 214.52 440.73 258.42 440.73 280.37 402.71 258.42 364.69"/><polygon class="cls-1" points="258.42 440.73 214.52 440.73 192.57 478.75 214.52 516.77 258.42 516.77 280.37 478.75 258.42 440.73"/><polygon class="cls-1" points="192.6 98.55 148.69 98.55 126.74 136.56 148.69 174.59 192.6 174.59 214.55 136.56 192.6 98.55"/><polygon class="cls-1" points="192.6 174.59 148.69 174.59 126.74 212.61 148.69 250.63 192.6 250.63 214.55 212.61 192.6 174.59"/><polygon class="cls-1" points="192.6 250.63 148.69 250.63 126.74 288.65 148.69 326.67 192.6 326.67 214.55 288.65 192.6 250.63"/><polygon class="cls-1" points="192.6 326.67 148.69 326.67 126.74 364.69 148.69 402.71 192.6 402.71 214.55 364.69 192.6 326.67"/><polygon class="cls-1" points="192.6 402.71 148.69 402.71 126.74 440.73 148.69 478.75 192.6 478.75 214.55 440.73 192.6 402.71"/><polygon class="cls-1" points="192.6 478.75 148.69 478.75 126.74 516.77 148.69 554.79 192.6 554.79 214.55 516.77 192.6 478.75"/><polygon class="cls-1" points="324.08 98.55 280.18 98.55 258.23 136.56 280.18 174.59 324.08 174.59 346.04 136.56 324.08 98.55"/><polygon class="cls-1" points="324.08 174.59 280.18 174.59 258.23 212.61 280.18 250.63 324.08 250.63 346.04 212.61 324.08 174.59"/><polygon class="cls-1" points="324.08 250.63 280.18 250.63 258.23 288.65 280.18 326.67 324.08 326.67 346.04 288.65 324.08 250.63"/><polygon class="cls-1" points="324.08 326.67 280.18 326.67 258.23 364.69 280.18 402.71 324.08 402.71 346.04 364.69 324.08 326.67"/><polygon class="cls-1" points="324.08 402.71 280.18 402.71 258.23 440.73 280.18 478.75 324.08 478.75 346.04 440.73 324.08 402.71"/><polygon class="cls-1" points="324.08 478.75 280.18 478.75 258.23 516.77 280.18 554.79 324.08 554.79 346.04 516.77 324.08 478.75"/><polygon class="cls-1" points="390.09 60.52 346.19 60.52 324.24 98.55 346.19 136.56 390.09 136.56 412.04 98.55 390.09 60.52"/><polygon class="cls-1" points="390.09 136.56 346.19 136.56 324.24 174.59 346.19 212.61 390.09 212.61 412.04 174.59 390.09 136.56"/><polygon class="cls-1" points="390.09 212.61 346.19 212.61 324.24 250.63 346.19 288.65 390.09 288.65 412.04 250.63 390.09 212.61"/><polygon class="cls-1" points="390.09 288.65 346.19 288.65 324.24 326.67 346.19 364.69 390.09 364.69 412.04 326.67 390.09 288.65"/><polygon class="cls-1" points="390.09 364.69 346.19 364.69 324.24 402.71 346.19 440.73 390.09 440.73 412.04 402.71 390.09 364.69"/><polygon class="cls-1" points="390.09 440.73 346.19 440.73 324.24 478.75 346.19 516.77 390.09 516.77 412.04 478.75 390.09 440.73"/><polygon class="cls-1" points="521.92 60.52 478.02 60.52 456.07 98.55 478.02 136.56 521.92 136.56 543.87 98.55 521.92 60.52"/><polygon class="cls-1" points="521.92 136.56 478.02 136.56 456.07 174.59 478.02 212.61 521.92 212.61 543.87 174.59 521.92 136.56"/><polygon class="cls-1" points="521.92 212.61 478.02 212.61 456.07 250.63 478.02 288.65 521.92 288.65 543.87 250.63 521.92 212.61"/><polygon class="cls-1" points="521.92 288.65 478.02 288.65 456.07 326.67 478.02 364.69 521.92 364.69 543.87 326.67 521.92 288.65"/><polygon class="cls-1" points="521.92 364.69 478.02 364.69 456.07 402.71 478.02 440.73 521.92 440.73 543.87 402.71 521.92 364.69"/><polygon class="cls-1" points="521.92 440.73 478.02 440.73 456.07 478.75 478.02 516.77 521.92 516.77 543.87 478.75 521.92 440.73"/><polygon class="cls-1" points="456.1 98.55 412.2 98.55 390.25 136.56 412.2 174.59 456.1 174.59 478.05 136.56 456.1 98.55"/><polygon class="cls-1" points="456.1 174.59 412.2 174.59 390.25 212.61 412.2 250.63 456.1 250.63 478.05 212.61 456.1 174.59"/><polygon class="cls-1" points="456.1 250.63 412.2 250.63 390.25 288.65 412.2 326.67 456.1 326.67 478.05 288.65 456.1 250.63"/><polygon class="cls-1" points="456.1 326.67 412.2 326.67 390.25 364.69 412.2 402.71 456.1 402.71 478.05 364.69 456.1 326.67"/><polygon class="cls-1" points="456.1 402.71 412.2 402.71 390.25 440.73 412.2 478.75 456.1 478.75 478.05 440.73 456.1 402.71"/><polygon class="cls-1" points="456.1 478.75 412.2 478.75 390.25 516.77 412.2 554.79 456.1 554.79 478.05 516.77 456.1 478.75"/><polygon class="cls-1" points="587.59 98.55 543.68 98.55 521.73 136.56 543.68 174.59 587.59 174.59 609.54 136.56 587.59 98.55"/><polygon class="cls-1" points="587.59 174.59 543.68 174.59 521.73 212.61 543.68 250.63 587.59 250.63 609.54 212.61 587.59 174.59"/><polygon class="cls-1" points="587.59 250.63 543.68 250.63 521.73 288.65 543.68 326.67 587.59 326.67 609.54 288.65 587.59 250.63"/><polygon class="cls-1" points="587.59 326.67 543.68 326.67 521.73 364.69 543.68 402.71 587.59 402.71 609.54 364.69 587.59 326.67"/><polygon class="cls-1" points="587.59 402.71 543.68 402.71 521.73 440.73 543.68 478.75 587.59 478.75 609.54 440.73 587.59 402.71"/><polygon class="cls-1" points="587.59 478.75 543.68 478.75 521.73 516.77 543.68 554.79 587.59 554.79 609.54 516.77 587.59 478.75"/><polygon class="cls-1" points="653.59 60.52 609.69 60.52 587.74 98.55 609.69 136.56 653.59 136.56 675.54 98.55 653.59 60.52"/><polygon class="cls-1" points="653.59 136.56 609.69 136.56 587.74 174.59 609.69 212.61 653.59 212.61 675.54 174.59 653.59 136.56"/><polygon class="cls-1" points="653.59 212.61 609.69 212.61 587.74 250.63 609.69 288.65 653.59 288.65 675.54 250.63 653.59 212.61"/><polygon class="cls-1" points="653.59 288.65 609.69 288.65 587.74 326.67 609.69 364.69 653.59 364.69 675.54 326.67 653.59 288.65"/><polygon class="cls-1" points="653.59 364.69 609.69 364.69 587.74 402.71 609.69 440.73 653.59 440.73 675.54 402.71 653.59 364.69"/><polygon class="cls-1" points="653.59 440.73 609.69 440.73 587.74 478.75 609.69 516.77 653.59 516.77 675.54 478.75 653.59 440.73"/><polygon class="cls-1" points="785.42 60.52 741.52 60.52 719.57 98.55 741.52 136.56 785.42 136.56 807.38 98.55 785.42 60.52"/><polygon class="cls-1" points="785.42 136.56 741.52 136.56 719.57 174.59 741.52 212.61 785.42 212.61 807.38 174.59 785.42 136.56"/><polygon class="cls-1" points="785.42 212.61 741.52 212.61 719.57 250.63 741.52 288.65 785.42 288.65 807.38 250.63 785.42 212.61"/><polygon class="cls-1" points="785.42 288.65 741.52 288.65 719.57 326.67 741.52 364.69 785.42 364.69 807.38 326.67 785.42 288.65"/><polygon class="cls-1" points="785.42 364.69 741.52 364.69 719.57 402.71 741.52 440.73 785.42 440.73 807.38 402.71 785.42 364.69"/><polygon class="cls-1" points="785.42 440.73 741.52 440.73 719.57 478.75 741.52 516.77 785.42 516.77 807.38 478.75 785.42 440.73"/><polygon class="cls-1" points="719.6 98.55 675.7 98.55 653.75 136.56 675.7 174.59 719.6 174.59 741.55 136.56 719.6 98.55"/><polygon class="cls-1" points="719.6 174.59 675.7 174.59 653.75 212.61 675.7 250.63 719.6 250.63 741.55 212.61 719.6 174.59"/><polygon class="cls-1" points="719.6 250.63 675.7 250.63 653.75 288.65 675.7 326.67 719.6 326.67 741.55 288.65 719.6 250.63"/><polygon class="cls-1" points="719.6 326.67 675.7 326.67 653.75 364.69 675.7 402.71 719.6 402.71 741.55 364.69 719.6 326.67"/><polygon class="cls-1" points="719.6 402.71 675.7 402.71 653.75 440.73 675.7 478.75 719.6 478.75 741.55 440.73 719.6 402.71"/><polygon class="cls-1" points="719.6 478.75 675.7 478.75 653.75 516.77 675.7 554.79 719.6 554.79 741.55 516.77 719.6 478.75"/><polygon class="cls-1" points="851.09 98.55 807.18 98.55 785.23 136.56 807.18 174.59 851.09 174.59 873.04 136.56 851.09 98.55"/><polygon class="cls-1" points="851.09 174.59 807.18 174.59 785.23 212.61 807.18 250.63 851.09 250.63 873.04 212.61 851.09 174.59"/><polygon class="cls-1" points="851.09 250.63 807.18 250.63 785.23 288.65 807.18 326.67 851.09 326.67 873.04 288.65 851.09 250.63"/><polygon class="cls-1" points="851.09 326.67 807.18 326.67 785.23 364.69 807.18 402.71 851.09 402.71 873.04 364.69 851.09 326.67"/><polygon class="cls-1" points="851.09 402.71 807.18 402.71 785.23 440.73 807.18 478.75 851.09 478.75 873.04 440.73 851.09 402.71"/><polygon class="cls-1" points="851.09 478.75 807.18 478.75 785.23 516.77 807.18 554.79 851.09 554.79 873.04 516.77 851.09 478.75"/><polygon class="cls-1" points="917.09 60.52 873.19 60.52 851.24 98.55 873.19 136.56 917.09 136.56 939.04 98.55 917.09 60.52"/><polygon class="cls-1" points="917.09 136.56 873.19 136.56 851.24 174.59 873.19 212.61 917.09 212.61 939.04 174.59 917.09 136.56"/><polygon class="cls-1" points="917.09 212.61 873.19 212.61 851.24 250.63 873.19 288.65 917.09 288.65 939.04 250.63 917.09 212.61"/><polygon class="cls-1" points="917.09 288.65 873.19 288.65 851.24 326.67 873.19 364.69 917.09 364.69 939.04 326.67 917.09 288.65"/><polygon class="cls-1" points="917.09 364.69 873.19 364.69 851.24 402.71 873.19 440.73 917.09 440.73 939.04 402.71 917.09 364.69"/><polygon class="cls-1" points="917.09 440.73 873.19 440.73 851.24 478.75 873.19 516.77 917.09 516.77 939.04 478.75 917.09 440.73"/><polygon class="cls-1" points="1048.92 60.52 1005.02 60.52 983.07 98.55 1005.02 136.56 1048.92 136.56 1070.88 98.55 1048.92 60.52"/><polygon class="cls-1" points="1048.92 136.56 1005.02 136.56 983.07 174.59 1005.02 212.61 1048.92 212.61 1070.88 174.59 1048.92 136.56"/><polygon class="cls-1" points="1048.92 212.61 1005.02 212.61 983.07 250.63 1005.02 288.65 1048.92 288.65 1070.88 250.63 1048.92 212.61"/><polygon class="cls-1" points="1048.92 288.65 1005.02 288.65 983.07 326.67 1005.02 364.69 1048.92 364.69 1070.88 326.67 1048.92 288.65"/><polygon class="cls-1" points="1048.92 364.69 1005.02 364.69 983.07 402.71 1005.02 440.73 1048.92 440.73 1070.88 402.71 1048.92 364.69"/><polygon class="cls-1" points="1048.92 440.73 1005.02 440.73 983.07 478.75 1005.02 516.77 1048.92 516.77 1070.88 478.75 1048.92 440.73"/><polygon class="cls-1" points="983.1 98.55 939.2 98.55 917.25 136.56 939.2 174.59 983.1 174.59 1005.05 136.56 983.1 98.55"/><polygon class="cls-1" points="983.1 174.59 939.2 174.59 917.25 212.61 939.2 250.63 983.1 250.63 1005.05 212.61 983.1 174.59"/><polygon class="cls-1" points="983.1 250.63 939.2 250.63 917.25 288.65 939.2 326.67 983.1 326.67 1005.05 288.65 983.1 250.63"/><polygon class="cls-1" points="983.1 326.67 939.2 326.67 917.25 364.69 939.2 402.71 983.1 402.71 1005.05 364.69 983.1 326.67"/><polygon class="cls-1" points="983.1 402.71 939.2 402.71 917.25 440.73 939.2 478.75 983.1 478.75 1005.05 440.73 983.1 402.71"/><polygon class="cls-1" points="983.1 478.75 939.2 478.75 917.25 516.77 939.2 554.79 983.1 554.79 1005.05 516.77 983.1 478.75"/><polygon class="cls-1" points="1114.59 98.55 1070.68 98.55 1048.73 136.56 1070.68 174.59 1114.59 174.59 1136.54 136.56 1114.59 98.55"/><polygon class="cls-1" points="1114.59 174.59 1070.68 174.59 1048.73 212.61 1070.68 250.63 1114.59 250.63 1136.54 212.61 1114.59 174.59"/><polygon class="cls-1" points="1114.59 250.63 1070.68 250.63 1048.73 288.65 1070.68 326.67 1114.59 326.67 1136.54 288.65 1114.59 250.63"/><polygon class="cls-1" points="1114.59 326.67 1070.68 326.67 1048.73 364.69 1070.68 402.71 1114.59 402.71 1136.54 364.69 1114.59 326.67"/><polygon class="cls-1" points="1114.59 402.71 1070.68 402.71 1048.73 440.73 1070.68 478.75 1114.59 478.75 1136.54 440.73 1114.59 402.71"/><polygon class="cls-1" points="1114.59 478.75 1070.68 478.75 1048.73 516.77 1070.68 554.79 1114.59 554.79 1136.54 516.77 1114.59 478.75"/><polygon class="cls-1" points="126.59 516.67 82.69 516.67 60.74 554.69 82.69 592.71 126.59 592.71 148.54 554.69 126.59 516.67"/><polygon class="cls-1" points="126.59 592.71 82.69 592.71 60.74 630.73 82.69 668.75 126.59 668.75 148.54 630.73 126.59 592.71"/><polygon class="cls-1" points="126.59 668.75 82.69 668.75 60.74 706.77 82.69 744.79 126.59 744.79 148.54 706.77 126.59 668.75"/><polygon class="cls-1" points="126.59 744.79 82.69 744.79 60.74 782.81 82.69 820.83 126.59 820.83 148.54 782.81 126.59 744.79"/><polygon class="cls-1" points="126.59 820.83 82.69 820.83 60.74 858.85 82.69 896.87 126.59 896.87 148.54 858.85 126.59 820.83"/><polygon class="cls-1" points="126.59 896.87 82.69 896.87 60.74 934.89 82.69 972.91 126.59 972.91 148.54 934.89 126.59 896.87"/><polygon class="cls-1" points="258.42 516.67 214.52 516.67 192.57 554.69 214.52 592.71 258.42 592.71 280.37 554.69 258.42 516.67"/><polygon class="cls-1" points="258.42 592.71 214.52 592.71 192.57 630.73 214.52 668.75 258.42 668.75 280.37 630.73 258.42 592.71"/><polygon class="cls-1" points="258.42 668.75 214.52 668.75 192.57 706.77 214.52 744.79 258.42 744.79 280.37 706.77 258.42 668.75"/><polygon class="cls-1" points="258.42 744.79 214.52 744.79 192.57 782.81 214.52 820.83 258.42 820.83 280.37 782.81 258.42 744.79"/><polygon class="cls-1" points="258.42 820.83 214.52 820.83 192.57 858.85 214.52 896.87 258.42 896.87 280.37 858.85 258.42 820.83"/><polygon class="cls-1" points="258.42 896.87 214.52 896.87 192.57 934.89 214.52 972.91 258.42 972.91 280.37 934.89 258.42 896.87"/><polygon class="cls-1" points="192.6 554.69 148.69 554.69 126.74 592.71 148.69 630.73 192.6 630.73 214.55 592.71 192.6 554.69"/><polygon class="cls-1" points="192.6 630.73 148.69 630.73 126.74 668.75 148.69 706.77 192.6 706.77 214.55 668.75 192.6 630.73"/><polygon class="cls-1" points="192.6 706.77 148.69 706.77 126.74 744.79 148.69 782.81 192.6 782.81 214.55 744.79 192.6 706.77"/><polygon class="cls-1" points="192.6 782.81 148.69 782.81 126.74 820.83 148.69 858.85 192.6 858.85 214.55 820.83 192.6 782.81"/><polygon class="cls-1" points="192.6 858.85 148.69 858.85 126.74 896.87 148.69 934.89 192.6 934.89 214.55 896.87 192.6 858.85"/><polygon class="cls-1" points="192.6 934.89 148.69 934.89 126.74 972.91 148.69 1010.93 192.6 1010.93 214.55 972.91 192.6 934.89"/><polygon class="cls-1" points="324.08 554.69 280.18 554.69 258.23 592.71 280.18 630.73 324.08 630.73 346.04 592.71 324.08 554.69"/><polygon class="cls-1" points="324.08 630.73 280.18 630.73 258.23 668.75 280.18 706.77 324.08 706.77 346.04 668.75 324.08 630.73"/><polygon class="cls-1" points="324.08 706.77 280.18 706.77 258.23 744.79 280.18 782.81 324.08 782.81 346.04 744.79 324.08 706.77"/><polygon class="cls-1" points="324.08 782.81 280.18 782.81 258.23 820.83 280.18 858.85 324.08 858.85 346.04 820.83 324.08 782.81"/><polygon class="cls-1" points="324.08 858.85 280.18 858.85 258.23 896.87 280.18 934.89 324.08 934.89 346.04 896.87 324.08 858.85"/><polygon class="cls-1" points="324.08 934.89 280.18 934.89 258.23 972.91 280.18 1010.93 324.08 1010.93 346.04 972.91 324.08 934.89"/><polygon class="cls-1" points="390.09 516.67 346.19 516.67 324.24 554.69 346.19 592.71 390.09 592.71 412.04 554.69 390.09 516.67"/><polygon class="cls-1" points="390.09 592.71 346.19 592.71 324.24 630.73 346.19 668.75 390.09 668.75 412.04 630.73 390.09 592.71"/><polygon class="cls-1" points="390.09 668.75 346.19 668.75 324.24 706.77 346.19 744.79 390.09 744.79 412.04 706.77 390.09 668.75"/><polygon class="cls-1" points="390.09 744.79 346.19 744.79 324.24 782.81 346.19 820.83 390.09 820.83 412.04 782.81 390.09 744.79"/><polygon class="cls-1" points="390.09 820.83 346.19 820.83 324.24 858.85 346.19 896.87 390.09 896.87 412.04 858.85 390.09 820.83"/><polygon class="cls-1" points="390.09 896.87 346.19 896.87 324.24 934.89 346.19 972.91 390.09 972.91 412.04 934.89 390.09 896.87"/><polygon class="cls-1" points="521.92 516.67 478.02 516.67 456.07 554.69 478.02 592.71 521.92 592.71 543.87 554.69 521.92 516.67"/><polygon class="cls-1" points="521.92 592.71 478.02 592.71 456.07 630.73 478.02 668.75 521.92 668.75 543.87 630.73 521.92 592.71"/><polygon class="cls-1" points="521.92 668.75 478.02 668.75 456.07 706.77 478.02 744.79 521.92 744.79 543.87 706.77 521.92 668.75"/><polygon class="cls-1" points="521.92 744.79 478.02 744.79 456.07 782.81 478.02 820.83 521.92 820.83 543.87 782.81 521.92 744.79"/><polygon class="cls-1" points="521.92 820.83 478.02 820.83 456.07 858.85 478.02 896.87 521.92 896.87 543.87 858.85 521.92 820.83"/><polygon class="cls-1" points="521.92 896.87 478.02 896.87 456.07 934.89 478.02 972.91 521.92 972.91 543.87 934.89 521.92 896.87"/><polygon class="cls-1" points="456.1 554.69 412.2 554.69 390.25 592.71 412.2 630.73 456.1 630.73 478.05 592.71 456.1 554.69"/><polygon class="cls-1" points="456.1 630.73 412.2 630.73 390.25 668.75 412.2 706.77 456.1 706.77 478.05 668.75 456.1 630.73"/><polygon class="cls-1" points="456.1 706.77 412.2 706.77 390.25 744.79 412.2 782.81 456.1 782.81 478.05 744.79 456.1 706.77"/><polygon class="cls-1" points="456.1 782.81 412.2 782.81 390.25 820.83 412.2 858.85 456.1 858.85 478.05 820.83 456.1 782.81"/><polygon class="cls-1" points="456.1 858.85 412.2 858.85 390.25 896.87 412.2 934.89 456.1 934.89 478.05 896.87 456.1 858.85"/><polygon class="cls-1" points="456.1 934.89 412.2 934.89 390.25 972.91 412.2 1010.93 456.1 1010.93 478.05 972.91 456.1 934.89"/><polygon class="cls-1" points="587.59 554.69 543.68 554.69 521.73 592.71 543.68 630.73 587.59 630.73 609.54 592.71 587.59 554.69"/><polygon class="cls-1" points="587.59 630.73 543.68 630.73 521.73 668.75 543.68 706.77 587.59 706.77 609.54 668.75 587.59 630.73"/><polygon class="cls-1" points="587.59 706.77 543.68 706.77 521.73 744.79 543.68 782.81 587.59 782.81 609.54 744.79 587.59 706.77"/><polygon class="cls-1" points="587.59 782.81 543.68 782.81 521.73 820.83 543.68 858.85 587.59 858.85 609.54 820.83 587.59 782.81"/><polygon class="cls-1" points="587.59 858.85 543.68 858.85 521.73 896.87 543.68 934.89 587.59 934.89 609.54 896.87 587.59 858.85"/><polygon class="cls-1" points="587.59 934.89 543.68 934.89 521.73 972.91 543.68 1010.93 587.59 1010.93 609.54 972.91 587.59 934.89"/><polygon class="cls-1" points="653.59 516.67 609.69 516.67 587.74 554.69 609.69 592.71 653.59 592.71 675.54 554.69 653.59 516.67"/><polygon class="cls-1" points="653.59 592.71 609.69 592.71 587.74 630.73 609.69 668.75 653.59 668.75 675.54 630.73 653.59 592.71"/><polygon class="cls-1" points="653.59 668.75 609.69 668.75 587.74 706.77 609.69 744.79 653.59 744.79 675.54 706.77 653.59 668.75"/><polygon class="cls-1" points="653.59 744.79 609.69 744.79 587.74 782.81 609.69 820.83 653.59 820.83 675.54 782.81 653.59 744.79"/><polygon class="cls-1" points="653.59 820.83 609.69 820.83 587.74 858.85 609.69 896.87 653.59 896.87 675.54 858.85 653.59 820.83"/><polygon class="cls-1" points="653.59 896.87 609.69 896.87 587.74 934.89 609.69 972.91 653.59 972.91 675.54 934.89 653.59 896.87"/><polygon class="cls-1" points="785.42 516.67 741.52 516.67 719.57 554.69 741.52 592.71 785.42 592.71 807.38 554.69 785.42 516.67"/><polygon class="cls-1" points="785.42 592.71 741.52 592.71 719.57 630.73 741.52 668.75 785.42 668.75 807.38 630.73 785.42 592.71"/><polygon class="cls-1" points="785.42 668.75 741.52 668.75 719.57 706.77 741.52 744.79 785.42 744.79 807.38 706.77 785.42 668.75"/><polygon class="cls-1" points="785.42 744.79 741.52 744.79 719.57 782.81 741.52 820.83 785.42 820.83 807.38 782.81 785.42 744.79"/><polygon class="cls-1" points="785.42 820.83 741.52 820.83 719.57 858.85 741.52 896.87 785.42 896.87 807.38 858.85 785.42 820.83"/><polygon class="cls-1" points="785.42 896.87 741.52 896.87 719.57 934.89 741.52 972.91 785.42 972.91 807.38 934.89 785.42 896.87"/><polygon class="cls-1" points="719.6 554.69 675.7 554.69 653.75 592.71 675.7 630.73 719.6 630.73 741.55 592.71 719.6 554.69"/><polygon class="cls-1" points="719.6 630.73 675.7 630.73 653.75 668.75 675.7 706.77 719.6 706.77 741.55 668.75 719.6 630.73"/><polygon class="cls-1" points="719.6 706.77 675.7 706.77 653.75 744.79 675.7 782.81 719.6 782.81 741.55 744.79 719.6 706.77"/><polygon class="cls-1" points="719.6 782.81 675.7 782.81 653.75 820.83 675.7 858.85 719.6 858.85 741.55 820.83 719.6 782.81"/><polygon class="cls-1" points="719.6 858.85 675.7 858.85 653.75 896.87 675.7 934.89 719.6 934.89 741.55 896.87 719.6 858.85"/><polygon class="cls-1" points="719.6 934.89 675.7 934.89 653.75 972.91 675.7 1010.93 719.6 1010.93 741.55 972.91 719.6 934.89"/><polygon class="cls-1" points="851.09 554.69 807.18 554.69 785.23 592.71 807.18 630.73 851.09 630.73 873.04 592.71 851.09 554.69"/><polygon class="cls-1" points="851.09 630.73 807.18 630.73 785.23 668.75 807.18 706.77 851.09 706.77 873.04 668.75 851.09 630.73"/><polygon class="cls-1" points="851.09 706.77 807.18 706.77 785.23 744.79 807.18 782.81 851.09 782.81 873.04 744.79 851.09 706.77"/><polygon class="cls-1" points="851.09 782.81 807.18 782.81 785.23 820.83 807.18 858.85 851.09 858.85 873.04 820.83 851.09 782.81"/><polygon class="cls-1" points="851.09 858.85 807.18 858.85 785.23 896.87 807.18 934.89 851.09 934.89 873.04 896.87 851.09 858.85"/><polygon class="cls-1" points="851.09 934.89 807.18 934.89 785.23 972.91 807.18 1010.93 851.09 1010.93 873.04 972.91 851.09 934.89"/><polygon class="cls-1" points="917.09 516.67 873.19 516.67 851.24 554.69 873.19 592.71 917.09 592.71 939.04 554.69 917.09 516.67"/><polygon class="cls-1" points="917.09 592.71 873.19 592.71 851.24 630.73 873.19 668.75 917.09 668.75 939.04 630.73 917.09 592.71"/><polygon class="cls-1" points="917.09 668.75 873.19 668.75 851.24 706.77 873.19 744.79 917.09 744.79 939.04 706.77 917.09 668.75"/><polygon class="cls-1" points="917.09 744.79 873.19 744.79 851.24 782.81 873.19 820.83 917.09 820.83 939.04 782.81 917.09 744.79"/><polygon class="cls-1" points="917.09 820.83 873.19 820.83 851.24 858.85 873.19 896.87 917.09 896.87 939.04 858.85 917.09 820.83"/><polygon class="cls-1" points="917.09 896.87 873.19 896.87 851.24 934.89 873.19 972.91 917.09 972.91 939.04 934.89 917.09 896.87"/><polygon class="cls-1" points="1048.92 516.67 1005.02 516.67 983.07 554.69 1005.02 592.71 1048.92 592.71 1070.88 554.69 1048.92 516.67"/><polygon class="cls-1" points="1048.92 592.71 1005.02 592.71 983.07 630.73 1005.02 668.75 1048.92 668.75 1070.88 630.73 1048.92 592.71"/><polygon class="cls-1" points="1048.92 668.75 1005.02 668.75 983.07 706.77 1005.02 744.79 1048.92 744.79 1070.88 706.77 1048.92 668.75"/><polygon class="cls-1" points="1048.92 744.79 1005.02 744.79 983.07 782.81 1005.02 820.83 1048.92 820.83 1070.88 782.81 1048.92 744.79"/><polygon class="cls-1" points="1048.92 820.83 1005.02 820.83 983.07 858.85 1005.02 896.87 1048.92 896.87 1070.88 858.85 1048.92 820.83"/><polygon class="cls-1" points="1048.92 896.87 1005.02 896.87 983.07 934.89 1005.02 972.91 1048.92 972.91 1070.88 934.89 1048.92 896.87"/><polygon class="cls-1" points="983.1 554.69 939.2 554.69 917.25 592.71 939.2 630.73 983.1 630.73 1005.05 592.71 983.1 554.69"/><polygon class="cls-1" points="983.1 630.73 939.2 630.73 917.25 668.75 939.2 706.77 983.1 706.77 1005.05 668.75 983.1 630.73"/><polygon class="cls-1" points="983.1 706.77 939.2 706.77 917.25 744.79 939.2 782.81 983.1 782.81 1005.05 744.79 983.1 706.77"/><polygon class="cls-1" points="983.1 782.81 939.2 782.81 917.25 820.83 939.2 858.85 983.1 858.85 1005.05 820.83 983.1 782.81"/><polygon class="cls-1" points="983.1 858.85 939.2 858.85 917.25 896.87 939.2 934.89 983.1 934.89 1005.05 896.87 983.1 858.85"/><polygon class="cls-1" points="983.1 934.89 939.2 934.89 917.25 972.91 939.2 1010.93 983.1 1010.93 1005.05 972.91 983.1 934.89"/><polygon class="cls-1" points="1114.59 554.69 1070.68 554.69 1048.73 592.71 1070.68 630.73 1114.59 630.73 1136.54 592.71 1114.59 554.69"/><polygon class="cls-1" points="1114.59 630.73 1070.68 630.73 1048.73 668.75 1070.68 706.77 1114.59 706.77 1136.54 668.75 1114.59 630.73"/><polygon class="cls-1" points="1114.59 706.77 1070.68 706.77 1048.73 744.79 1070.68 782.81 1114.59 782.81 1136.54 744.79 1114.59 706.77"/><polygon class="cls-1" points="1114.59 782.81 1070.68 782.81 1048.73 820.83 1070.68 858.85 1114.59 858.85 1136.54 820.83 1114.59 782.81"/><polygon class="cls-1" points="1114.59 858.85 1070.68 858.85 1048.73 896.87 1070.68 934.89 1114.59 934.89 1136.54 896.87 1114.59 858.85"/><polygon class="cls-1" points="1114.59 934.89 1070.68 934.89 1048.73 972.91 1070.68 1010.93 1114.59 1010.93 1136.54 972.91 1114.59 934.89"/></svg>